<svg overflow="visible" style="display: block;" width="20" height="20" viewBox="0 0 20 20" fill="none" xmlns="http://www.w3.org/2000/svg">
<path id="Icon" d="M15.4 17.2C13.9 18.33 12.03 19 10 19C5.03 19 1 14.97 1 10C1 5.03 5.03 1 10 1C14.97 1 19 5.03 19 10V11.5C19 12.88 17.88 14 16.5 14C15.12 14 14 12.88 14 11.5V6M14 10C14 12.21 12.21 14 10 14C7.79 14 6 12.21 6 10C6 7.79 7.79 6 10 6C12.21 6 14 7.79 14 10Z" stroke="#010101" stroke-width="2" stroke-linecap="round" stroke-linejoin="round"/>
</svg>
